<?xml version="1.0" standalone="no"?>
<!DOCTYPE svg PUBLIC "-//W3C//DTD SVG 20010904//EN"
 "http://www.w3.org/TR/2001/REC-SVG-20010904/DTD/svg10.dtd">
<svg version="1.0" xmlns="http://www.w3.org/2000/svg"
 width="700.000000pt" height="700.000000pt" viewBox="0 0 700.000000 700.000000"
 preserveAspectRatio="xMidYMid meet">
<metadata>
Created by potrace 1.14, written by Peter Selinger 2001-2017
</metadata>
<g transform="translate(0.000000,700.000000) scale(0.100000,-0.100000)"
fill="#000000" stroke="none">
<path d="M3429 6961 c-23 -23 -29 -39 -30 -73 -1 -24 -1 -225 -1 -448 0 -340
2 -415 16 -467 46 -182 176 -313 359 -364 23 -7 109 -13 190 -15 103 -2 163
-8 197 -19 67 -22 141 -91 170 -157 21 -49 24 -68 25 -240 1 -152 -2 -198 -16
-243 -23 -75 -76 -137 -146 -171 -53 -26 -67 -28 -237 -35 -100 -4 -195 -11
-211 -17 -163 -52 -283 -170 -336 -329 -17 -54 -22 -91 -23 -195 l-1 -128 -85
0 c-124 -1 -190 -35 -237 -123 -14 -26 -17 -61 -18 -179 -1 -82 -4 -150 -7
-153 -2 -3 -618 -5 -1369 -5 l-1364 -1 -61 -25 c-86 -35 -165 -109 -206 -192
l-33 -67 0 -1510 0 -1510 33 -67 c60 -122 156 -194 287 -215 22 -3 1460 -6
3195 -6 l3155 0 65 21 c111 37 201 129 241 244 17 50 18 129 18 1538 l0 1485
-26 63 c-48 117 -153 206 -273 232 -39 8 -219 10 -627 8 -560 -3 -573 -3 -593
-23 -48 -48 -40 -125 16 -162 26 -16 66 -18 598 -18 512 -1 574 -3 602 -18 39
-20 82 -70 91 -105 4 -15 7 -679 7 -1477 l0 -1450 -22 -40 c-13 -22 -39 -52
-59 -65 l-37 -25 -3157 -2 c-2467 -2 -3165 0 -3191 10 -49 18 -73 38 -99 82
l-24 40 -1 1440 c0 1125 2 1450 12 1484 14 48 44 85 89 109 27 15 238 16 2370
17 1923 0 2346 3 2372 14 61 25 73 115 23 166 -20 20 -32 20 -569 23 l-548 2
-1 144 c0 156 -10 196 -60 250 -46 48 -97 65 -206 67 l-97 1 2 117 c1 74 6
128 16 151 37 91 107 159 187 182 23 6 106 12 186 14 227 4 322 37 435 149 66
66 115 156 134 244 7 31 12 139 11 245 0 220 -13 296 -70 390 -69 115 -204
212 -327 234 -29 5 -112 10 -185 11 -89 1 -149 6 -180 17 -64 21 -140 91 -169
156 -23 53 -23 55 -25 478 -2 234 -3 438 -3 453 -1 45 -50 87 -101 87 -33 0
-48 -6 -71 -29z m313 -3110 c4 0 7 -57 7 -125 l0 -125 -249 -1 -250 0 0 128 0
128 243 -2 c133 -1 245 -2 249 -3z"/>
<path d="M543 3100 c-92 -42 -100 -71 -98 -365 2 -280 6 -295 85 -344 33 -20
48 -21 298 -21 284 0 311 4 358 55 41 44 46 84 42 341 -3 236 -3 241 -27 276
-48 70 -63 73 -357 74 -229 1 -267 -1 -301 -16z m482 -358 l0 -168 -187 0
-188 0 0 168 0 168 188 0 187 0 0 -168z"/>
<path d="M1443 3107 c-35 -11 -83 -58 -101 -100 -8 -19 -11 -103 -9 -276 2
-246 2 -248 27 -285 48 -73 65 -76 363 -76 256 0 265 1 307 23 29 15 51 37 66
64 20 39 21 53 20 295 l-1 255 -28 36 c-53 70 -61 71 -352 73 -143 0 -274 -4
-292 -9z m467 -365 l0 -168 -179 1 c-99 0 -183 3 -186 7 -4 4 -8 79 -9 168
l-1 160 188 0 187 0 0 -168z"/>
<path d="M2335 3109 c-16 -5 -43 -20 -59 -35 -52 -49 -56 -72 -56 -334 0 -269
5 -294 72 -342 33 -23 35 -23 324 -23 263 0 292 2 308 18 10 9 21 17 25 17 4
0 18 19 31 43 24 41 24 48 25 281 1 246 -4 287 -42 328 -45 50 -61 52 -338 54
-143 0 -273 -3 -290 -7z m463 -367 l-3 -167 -185 0 -185 0 -1 155 c0 85 3 162
7 170 6 13 35 15 188 12 l181 -3 -2 -167z"/>
<path d="M3223 3108 c-37 -10 -90 -60 -104 -97 -6 -14 -10 -136 -10 -273 0
-264 2 -278 53 -325 42 -39 70 -43 338 -43 273 0 296 3 342 47 44 42 49 75 50
330 1 224 0 241 -20 279 -12 24 -38 52 -59 65 -37 24 -43 24 -298 25 -143 1
-274 -3 -292 -8z m465 -363 c-1 -91 -4 -166 -7 -166 -17 -4 -339 -6 -353 -2
-15 4 -17 21 -16 161 0 86 2 160 5 165 2 4 87 7 188 7 l184 0 -1 -165z"/>
<path d="M4099 3103 c-42 -18 -67 -40 -87 -78 -13 -25 -16 -72 -17 -269 -1
-258 4 -288 51 -337 45 -47 76 -51 364 -47 259 3 266 4 298 26 18 13 41 41 52
62 18 36 20 60 20 281 0 275 -6 301 -77 349 l-37 25 -267 1 c-208 1 -274 -2
-300 -13z m476 -360 l-1 -168 -187 0 -187 0 0 167 0 168 188 0 188 0 -1 -167z"/>
<path d="M4984 3102 c-45 -23 -65 -44 -84 -87 -16 -35 -18 -71 -17 -285 2
-234 3 -247 24 -280 12 -20 40 -46 61 -58 38 -21 50 -22 307 -22 268 0 268 0
311 25 28 17 49 39 63 69 20 41 22 57 20 282 -1 141 -6 249 -12 264 -15 35
-57 80 -87 93 -16 7 -125 11 -291 12 -217 2 -271 -1 -295 -13z m479 -355 c0
-87 -4 -161 -8 -165 -3 -4 -87 -7 -186 -7 l-179 -1 0 168 0 168 187 -2 187 -3
-1 -158z"/>
<path d="M5884 3109 c-17 -5 -44 -21 -59 -36 -51 -51 -55 -73 -55 -327 0 -267
6 -295 68 -343 l37 -28 286 0 285 0 37 25 c66 45 71 65 72 330 1 247 -3 281
-36 324 -45 57 -61 60 -344 62 -143 0 -274 -3 -291 -7z m466 -367 l0 -167
-182 1 c-101 1 -185 2 -188 3 -4 1 -5 320 -1 329 0 1 84 2 186 2 l185 0 0
-168z"/>
<path d="M583 2129 c-68 -14 -116 -59 -131 -123 -5 -23 -8 -144 -7 -271 1
-193 4 -235 18 -262 21 -39 59 -70 101 -81 17 -5 234 -8 481 -7 482 1 481 1
527 52 41 45 46 78 44 333 -1 239 -2 246 -25 283 -12 21 -41 47 -62 58 -37 18
-62 20 -479 22 -241 1 -452 -1 -467 -4z m827 -370 l0 -169 -380 0 -380 0 0
169 0 169 380 0 380 1 0 -170z"/>
<path d="M1912 2133 c-4 -1 -24 -4 -44 -8 -44 -7 -92 -44 -115 -88 -13 -26
-16 -71 -16 -278 0 -240 1 -247 24 -288 13 -23 39 -52 58 -63 33 -21 48 -22
290 -24 160 -1 270 2 294 9 42 12 93 58 109 97 14 37 13 489 -1 533 -13 39
-68 93 -104 102 -19 5 -476 13 -495 8z m404 -375 l1 -168 -187 0 -187 0 0 169
0 169 186 -2 186 -1 1 -167z"/>
<path d="M2799 2129 c-76 -14 -107 -38 -134 -102 -21 -50 -22 -491 -1 -540 17
-40 51 -72 96 -90 54 -21 543 -17 585 5 84 44 91 76 90 370 0 232 -2 245 -22
279 -12 19 -40 45 -62 57 -38 22 -52 23 -279 25 -132 1 -255 -1 -273 -4z m431
-370 l0 -169 -188 0 -187 0 0 163 c0 89 4 165 9 168 5 4 89 7 187 7 l179 1 0
-170z"/>
<path d="M3730 2129 c-76 -6 -120 -32 -147 -88 -14 -31 -17 -70 -18 -274 -1
-247 4 -287 42 -329 44 -49 62 -52 338 -54 283 -2 314 3 361 57 42 49 45 74
42 336 l-3 250 -27 35 c-48 62 -70 68 -309 70 -118 2 -243 0 -279 -3z m411
-212 c1 -7 2 -83 3 -169 l2 -158 -188 0 -188 0 0 169 0 168 185 1 c138 1 185
-2 186 -11z"/>
<path d="M4645 2132 c-78 -7 -135 -47 -156 -109 -13 -39 -17 -451 -6 -513 9
-44 68 -107 111 -118 17 -5 148 -8 292 -7 238 1 264 3 290 20 39 25 49 35 69
75 16 31 18 63 18 281 0 204 -3 250 -16 276 -19 36 -70 81 -100 88 -23 6 -451
12 -502 7z m412 -374 l2 -168 -188 0 -188 0 -1 148 c0 81 1 157 4 169 4 21 6
22 187 20 l182 -2 2 -167z"/>
<path d="M5514 2127 c-50 -10 -88 -40 -112 -87 -18 -36 -19 -61 -19 -280 0
-257 6 -290 55 -333 46 -41 73 -43 545 -43 l453 1 42 27 c73 49 76 61 77 333
1 288 -5 316 -87 365 -36 21 -46 21 -477 23 -242 1 -457 -1 -477 -6z m836
-368 l0 -169 -380 0 -380 0 -1 35 c0 19 0 64 0 100 0 36 0 96 0 134 l1 69 380
0 380 0 0 -169z"/>
<path d="M545 1133 c-94 -49 -99 -65 -100 -343 0 -129 3 -251 8 -271 5 -20 20
-48 34 -64 49 -52 72 -56 354 -56 252 -1 259 0 301 23 30 16 50 37 66 68 22
44 23 52 20 296 -3 249 -3 251 -28 287 -48 71 -73 76 -366 76 -215 0 -264 -3
-289 -16z m463 -192 c15 -1 17 -16 17 -169 l0 -167 -187 0 -188 0 0 170 0 170
170 -2 c94 -1 178 -2 188 -2z"/>
<path d="M1535 1141 c-43 -13 -85 -47 -102 -81 -16 -30 -18 -69 -20 -279 -3
-231 -2 -247 18 -288 14 -29 35 -52 65 -69 l44 -26 1958 0 1959 0 41 21 c25
13 50 37 66 63 l25 42 -2 255 c-2 286 -4 293 -76 342 l-36 24 -1557 0 -1558 0
-27 -28 c-40 -39 -40 -105 0 -144 l27 -28 1510 0 1510 0 1 -25 c4 -110 1 -302
-5 -308 -4 -4 -849 -7 -1878 -7 -1670 -1 -1870 1 -1877 15 -8 18 -7 308 2 316
3 3 67 7 143 8 l137 1 29 35 c25 29 29 41 24 74 -3 24 -15 49 -30 65 -26 26
-27 26 -199 27 -94 1 -181 -1 -192 -5z"/>
<path d="M5875 1136 c-43 -19 -83 -63 -95 -105 -5 -20 -10 -140 -10 -266 0
-219 1 -233 23 -275 16 -34 34 -51 69 -68 46 -23 55 -24 301 -24 274 0 297 4
348 55 14 14 30 41 35 59 6 18 9 141 9 273 -1 198 -4 245 -17 270 -21 40 -56
70 -96 83 -48 16 -528 14 -567 -2z m475 -361 l0 -170 -182 1 c-101 1 -185 2
-188 3 -3 0 -5 74 -5 164 0 148 1 162 18 167 10 3 94 5 188 5 l169 0 0 -170z"/>
</g>
</svg>
