<svg xmlns="http://www.w3.org/2000/svg" xmlns:xlink="http://www.w3.org/1999/xlink" xmlns:inkscape="http://www.inkscape.org/namespaces/inkscape" version="1.1" width="1341.12" height="675.12" viewBox="0 0 1341.12 675.12" stroke="#ffffff">
  <defs>
    <clipPath id="clip_0">
      <path transform="matrix(.24,0,0,.24,0,0)" d="M0 0H5587.5V2810.9278H0Z" clip-rule="evenodd"/>
    </clipPath>
    <clipPath id="clip_1">
      <path transform="matrix(.24,0,0,.24,0,0)" d="M0 0H5587.5V2810.9278H0Z" clip-rule="evenodd"/>
    </clipPath>
  </defs>
  <g clip-path="url(#clip_1)">
    <path transform="matrix(2.3156965,0,0,2.3152574,44.63111,61.122983)" stroke-width="5" stroke-linecap="round" stroke-linejoin="round" fill="transparent" stroke="currentColor" d="M488.61 174.4 490.39 173.99C490.39 173.99 492.16 173.58 496.23 173.25 496.23 173.25 500.29 172.91 504.72 172.98 504.72 172.98 509.14 173.05 513.03 173.47 513.03 173.47 516.92 173.89 520.6 174.42 520.6 174.42 524.28 174.94 527.32 175.49 527.32 175.49 530.36 176.04 532.57 176.46 532.57 176.46 534.78 176.88 535.86 177.17 535.86 177.17 536.94 177.45 537.13 177.58 537.13 177.58 537.32 177.71 536.66 177.67 536.66 177.67 536 177.62 532.91 177 532.91 177 529.81 176.38 522.03 174.82 522.03 174.82 514.24 173.26 504.88 171.43 504.88 171.43 495.51 169.59 484.86 167.54 484.86 167.54 474.21 165.49 461.44 163.2 461.44 163.2 448.67 160.9 433.99 158.47 433.99 158.47 419.31 156.04 403.19 153.76 403.19 153.76 387.07 151.48 369.83 149.43 369.83 149.43 352.58 147.37 334.83 145.64 334.83 145.64 317.08 143.91 299.08 142.53 299.08 142.53 281.09 141.15 263.08 140.25 263.08 140.25 245.07 139.34 227.58 139.01 227.58 139.01 210.1 138.69 193.21 138.72 193.21 138.72 176.32 138.75 160.42 139.19 160.42 139.19 144.52 139.63 129.59 140.39 129.59 140.39 114.65 141.16 101.23 142.18 101.23 142.18 87.8 143.2 76.1 144.18 76.1 144.18 64.41 145.16 54.52 146.08 54.52 146.08 44.62 147.01 36.61 147.75 36.61 147.75 28.61 148.49 22.47 149.19 22.47 149.19 16.33 149.88 11.85 150.51 11.85 150.51 7.38 151.15 4.74 151.68 4.74 151.68 2.1 152.2 1.05 152.6 1.05 152.6 0 153 .020000002 153.26 .020000002 153.26 .030000002 153.51 1.37 153.68 1.37 153.68 2.7 153.85 6.65 153.88 6.65 153.88 10.6 153.91 18.74 153.63 18.74 153.63 26.88 153.34 36.23 153.1 36.23 153.1 45.58 152.85 56.13 152.57 56.13 152.57 66.68 152.3 78.56 152.05 78.56 152.05 90.43 151.79 103.51 151.62 103.51 151.62 116.59 151.45 130.84 151.41 130.84 151.41 145.08 151.36 160.26 151.51 160.26 151.51 175.44 151.65 191.32 152.03 191.32 152.03 207.19 152.4 223.46 153.1 223.46 153.1 239.72 153.8 256.35 154.87 256.35 154.87 272.98 155.94 290.46 157.53 290.46 157.53 307.93 159.11 326.66 161.25 326.66 161.25 345.4 163.39 359.13 165.17 359.13 165.17 372.85 166.95 387.5 169.01 387.5 169.01 402.15 171.06 417.48 173.39 417.48 173.39 432.8 175.71 444.02 177.66 444.02 177.66 455.23 179.6 463.1 181.07 463.1 181.07 470.97 182.54 478.9 183.8 478.9 183.8 486.83 185.05 491.83 185.59 491.83 185.59 496.82 186.12 499.63 186.03 499.63 186.03 502.44 185.93 503.6 185.07 503.6 185.07 504.75 184.2 504.4 182.91 504.4 182.91 504.05 181.62 502.34 179.62 502.34 179.62 500.62 177.62 496.86 174.46 496.86 174.46 493.09 171.3 487.46 167.37 487.46 167.37 481.82 163.43 475.17 159.26 475.17 159.26 468.51 155.1 460.74 150.69 460.74 150.69 452.96 146.27 443.83 141.41 443.83 141.41 434.7 136.54 424.38 131.5 424.38 131.5 414.05 126.46 402.58 121.33 402.58 121.33 391.11 116.2 378.66 111.12 378.66 111.12 366.2 106.04 353.15 100.88 353.15 100.88 340.09 95.72 326.81 90.74 326.81 90.74 313.53 85.76 300.02 80.91 300.02 80.91 286.52 76.05 273.18 71.38 273.18 71.38 259.84 66.72 246.9 62.21 246.9 62.21 233.97 57.69 221.53 53.38 221.53 53.38 209.09 49.07 197.26 44.96 197.26 44.96 185.42 40.84 174.27 36.88 174.27 36.88 163.11 32.92 152.72 29.04 152.72 29.04 142.33 25.15 132.79 21.72 132.79 21.72 123.24 18.28 114.51 15.31 114.51 15.31 105.77 12.34 97.88 9.9 97.88 9.9 89.99 7.45 83 5.61 83 5.61 76.01 3.77 70.09 2.56 70.09 2.56 64.17 1.35 59.57 .8 59.57 .8 54.97 .24000001 51.68 .120000008 51.68 .120000008 48.39 0 46.46 .38000003 46.46 .38000003 44.53 .75 43.77 1.61 43.77 1.61 43 2.46 43.16 3.73 43.16 3.73 43.31 5 44.92 6.99 44.92 6.99 46.53 8.98 50.21 12.25 50.21 12.25 53.89 15.51 58.88 19.38 58.88 19.38 63.87 23.24 69.71 27.64 69.71 27.64 75.54 32.03 82.2 36.82 82.2 36.82 88.85 41.6 96.13 46.94 96.13 46.94 103.41 52.28 111.22 58.3 111.22 58.3 119.03 64.32 127.11 70.82 127.11 70.82 135.18 77.33 143.48 84.13 143.48 84.13 151.78 90.92 160.28 98.06 160.28 98.06 168.78 105.2 177.32 112.39 177.32 112.39 185.85 119.57 194.46 126.79 194.46 126.79 203.07 134 211.56 141.04 211.56 141.04 220.04 148.07 228.24 154.73 228.24 154.73 236.44 161.39 244.38 167.74 244.38 167.74 252.31 174.08 259.73 180.09 259.73 180.09 267.15 186.1 274 191.77 274 191.77 280.85 197.45 287.26 203.05 287.26 203.05 293.66 208.65 297.77 212.53 297.77 212.53 301.87 216.41 305.8 220.45 305.8 220.45 309.73 224.48 313.38 228.37 313.38 228.37 317.03 232.25 319.44 235.09 319.44 235.09 321.85 237.93 323.26 239.97 323.26 239.97 324.67 242 325.31 243.25 325.31 243.25 325.94 244.5 326.19 245 326.19 245 326.43 245.5 326.45 245.52 326.45 245.52 326.47 245.53 326.25 244.92 326.25 244.92 326.02 244.31 324.87 242.2 324.87 242.2 323.72 240.09 320.93 235.18 320.93 235.18 318.14 230.27 314.72 224.41 314.72 224.41 311.3 218.54 307.46 212.26 307.46 212.26 303.62 205.98 299.22 199.54 299.22 199.54 294.81 193.09 289.98 186.73 289.98 186.73 285.15 180.37 279.95 174.21 279.95 174.21 274.75 168.04 269.32 162.14 269.32 162.14 263.88 156.25 258.27 150.82 258.27 150.82 252.66 145.39 246.91 140.41 246.91 140.41 241.15 135.43 235.25 131.07 235.25 131.07 229.34 126.7 223.21 122.87 223.21 122.87 217.07 119.04 210.86 115.79 210.86 115.79 204.64 112.54 198.62 109.72 198.62 109.72 192.6 106.9 187.07 104.45 187.07 104.45 181.53 102 176.83 100.12 176.83 100.12 172.14 98.23 168.4 97.02 168.4 97.02 164.66 95.8 162.23 95.25 162.23 95.25 159.79 94.69 158.54 94.42 158.54 94.42 157.29 94.14 156.88 94.13 156.88 94.13 156.47 94.12 156.63 94.37 156.63 94.37 156.78 94.61 157.76 95.27 157.76 95.27 158.75 95.93 161.51 97.53 161.51 97.53 164.28 99.12 169.2 101.75 169.2 101.75 174.11 104.38 179.34 106.95 179.34 106.95 184.57 109.51 190.07 111.66 190.07 111.66 195.57 113.8 201.47 115.68 201.47 115.68 207.36 117.56 213.7 119.25 213.7 119.25 220.04 120.94 226.71 122.39 226.71 122.39 233.38 123.84 240.26 125.02 240.26 125.02 247.14 126.2 253.83 127.25 253.83 127.25 260.51 128.3 266.68 128.98 266.68 128.98 272.85 129.65 278.12 130.06 278.12 130.06 283.38 130.46 287.29 130.61 287.29 130.61 291.2 130.76 293.76 130.66 293.76 130.66 296.32 130.55 297.56 130.17 297.56 130.17 298.8 129.78 299.08 129.31 299.08 129.31 299.35 128.83 298.95 128.18 298.95 128.18 298.54 127.53 297.27 126.69 297.27 126.69 296 125.85 292.95 124.57 292.95 124.57 289.9 123.29 286.08 122 286.08 122 282.26 120.71 278.93 119.84 278.93 119.84 275.6 118.96 273.1 118.4 273.1 118.4 270.59 117.84 268.93 117.71 268.93 117.71 267.28 117.58 266.65 117.63 266.65 117.63 266.03 117.68 265.95 117.93 265.95 117.93 265.86 118.18 266.45 118.76 266.45 118.76 267.03 119.34 268.9 120.41 268.9 120.41 270.77 121.47 274.14 123.12 274.14 123.12 277.51 124.77 281.42 126.42 281.42 126.42 285.33 128.06 289.2 129.45 289.2 129.45 293.07 130.84 297.04 132.05 297.04 132.05 301.01 133.25 304.87 134.29 304.87 134.29 308.73 135.32 312.42 136.12 312.42 136.12 316.1 136.91 319.54 137.36 319.54 137.36 322.98 137.81 325.82 138.07 325.82 138.07 328.66 138.32 330.74 138.39 330.74 138.39 332.82 138.47 334.09 138.3 334.09 138.3 335.35 138.13 335.8 137.75 335.8 137.75 336.24 137.37 336.29 136.88 336.29 136.88 336.33 136.39 335.95 135.76 335.95 135.76 335.57 135.13 334.48 134.38 334.48 134.38 333.38 133.62 331.49 132.64 331.49 132.64 329.6 131.65 327.31 130.56 327.31 130.56 325.01 129.46 323.39 128.75 323.39 128.75 321.76 128.03 321 127.71 321 127.71 320.23 127.39 320.05 127.32 320.05 127.32 319.87 127.24 320.24 127.35 320.24 127.35 320.61 127.47 321.9 128.08 321.9 128.08 323.19 128.7 326.02 130.06 326.02 130.06 328.84 131.41 332.6 133.13 332.6 133.13 336.35 134.85 340.14 136.56 340.14 136.56 343.92 138.26 347.48 139.79 347.48 139.79 351.04 141.31 354.3 142.6 354.3 142.6 357.56 143.88 360.29 144.68 360.29 144.68 363.01 145.47 365.06 145.76 365.06 145.76 367.1 146.06 368.58 145.98 368.58 145.98 370.06 145.9 371.1 145.37 371.1 145.37 372.13 144.84 372.68 143.87 372.68 143.87 373.23 142.89 373.51 141.73 373.51 141.73 373.78 140.56 373.78 139.42 373.78 139.42 373.78 138.27 373.48 137.16 373.48 137.16 373.17 136.04 372.58 134.95 372.58 134.95 371.99 133.85 371.45 132.89 371.45 132.89 370.91 131.94 370.45 131.32 370.45 131.32 369.98 130.69 369.62 130.37 369.62 130.37 369.25 130.04 369.1 130.01 369.1 130.01 368.94 129.98 369.15 130.37 369.15 130.37 369.35 130.76 370.22 131.56 370.22 131.56 371.09 132.36 372.75 133.69 372.75 133.69 374.41 135.01 376.53 136.58 376.53 136.58 378.65 138.16 380.96 139.66 380.96 139.66 383.27 141.15 385.71 142.49 385.71 142.49 388.15 143.82 390.63 144.82 390.63 144.82 393.11 145.83 395.55 146.5 395.55 146.5 397.99 147.17 400.17 147.43 400.17 147.43 402.34 147.69 404.29 147.69 404.29 147.69 406.24 147.68 408 147.22 408 147.22 409.75 146.75 410.96 146.11 410.96 146.11 412.17 145.46 412.92 144.8 412.92 144.8 413.66 144.14 413.98 143.43 413.98 143.43 414.29 142.71 414.39 141.99 414.39 141.99 414.48 141.27 414.28 140.47 414.28 140.47 414.07 139.66 413.54 138.85 413.54 138.85 413.02 138.04 412.26 137.3 412.26 137.3 411.5 136.55 410.78 135.96 410.78 135.96 410.06 135.37 409.53 135.01 409.53 135.01 408.99 134.65 408.77 134.41 408.77 134.41 408.54 134.17 408.88 134.12 408.88 134.12 409.21 134.07 410.51 134.36 410.51 134.36 411.8 134.65 414.69 135.59 414.69 135.59 417.57 136.53 421.55 137.82 421.55 137.82 425.53 139.11 430.09 140.53 430.09 140.53 434.65 141.95 439.22 143.42 439.22 143.42 443.78 144.89 448.08 146.39 448.08 146.39 452.38 147.88 455.71 149.29 455.71 149.29 459.04 150.69 461.19 151.88L463.34 153.06"/>
    <path transform="matrix(2.3156965,0,0,2.3152574,895.2114,353.21333)" stroke-width="5" stroke-linecap="round" stroke-linejoin="round" fill="transparent" stroke="currentColor" d="M.39000003 .17000002 .38000003 .16C.38000003 .16 .37 .14 .34 .120000008 .34 .120000008 .31 .09 .27 .080000009 .27 .080000009 .22 .060000004 .18 .050000006 .18 .050000006 .13 .030000002 .09 .020000002 .09 .020000002 .050000006 0 .030000002 0H0"/>
  </g>
</svg>
